<?xml version="1.0" encoding="UTF-8" standalone="no"?>
<!DOCTYPE svg PUBLIC "-//W3C//DTD SVG 1.1//EN" "http://www.w3.org/Graphics/SVG/1.1/DTD/svg11.dtd">
<svg width="100%" height="100%" viewBox="0 0 2500 2481" version="1.1" xmlns="http://www.w3.org/2000/svg" xmlns:xlink="http://www.w3.org/1999/xlink" xml:space="preserve" xmlns:serif="http://www.serif.com/" style="fill-rule:evenodd;clip-rule:evenodd;stroke-linejoin:round;stroke-miterlimit:2;">
    <g transform="matrix(4.16667,0,0,4.16667,-829.804,-587.334)">
        <g transform="matrix(0.399681,-1.38778e-17,1.38778e-17,0.399681,-126.555,-330.811)">
            <g>
                <path d="M1564.36,2059.45C1564.52,2051.38 1880.1,1823.38 1880.1,1823.38L1891.41,1458.29L1880.1,1823.38L1564.36,2059.45Z" style="fill:none;stroke:rgb(252,255,252);stroke-width:25.55px;"/>
            </g>
        </g>
        <g transform="matrix(1.66534,0,0,1.66534,-633.828,-431.255)">
            <g transform="matrix(0.24,-6.93889e-18,6.93889e-18,0.24,380.363,206.625)">
                <g>
                    <path d="M1568.79,2014.93C1568.94,2006.86 1884.52,1778.86 1884.52,1778.86L1891.41,1458.29L1884.52,1778.86L1568.79,2014.93Z" style="fill:none;stroke:rgb(252,255,252);stroke-width:33.41px;"/>
                </g>
            </g>
            <g transform="matrix(0.24,0,0,0.24,380.363,206.625)">
                <path d="M1256.37,1468.58C1250.08,1463.81 1246.28,1460.89 1246.28,1460.89L1565.98,1219.02L1888.17,1455.32L1668.25,1618.88C1630.05,1647.95 1565.75,1690.63 1565.75,1690.63L1256.37,1468.58Z" style="fill:none;stroke:rgb(252,255,252);stroke-width:32.66px;"/>
            </g>
            <g transform="matrix(0.24,0,0,0.24,380.363,206.625)">
                <path d="M1256.37,1468.58C1269.19,1478.33 1565.75,1690.63 1565.75,1690.63C1565.75,1690.63 1563.45,1900.24 1564.22,2013.55L1247.15,1780.67L1246.38,1461.15L1256.37,1468.58Z" style="fill:none;stroke:rgb(252,255,252);stroke-width:33.41px;"/>
            </g>
        </g>
        <g transform="matrix(1.66534,0,0,1.66534,-888.81,-428.027)">
            <g transform="matrix(0.24,-6.93889e-18,6.93889e-18,0.24,380.363,206.625)">
                <g>
                    <path d="M1566.95,2013.8C1567.11,2005.73 1882.69,1777.73 1882.69,1777.73L1891.41,1458.29L1882.69,1777.73L1566.95,2013.8Z" style="fill:none;stroke:rgb(252,255,252);stroke-width:33.04px;"/>
                </g>
            </g>
            <g transform="matrix(0.24,0,0,0.24,380.363,206.625)">
                <path d="M1256.37,1468.58C1250.08,1463.81 1246.28,1460.89 1246.28,1460.89L1565.98,1219.02L1888.17,1455.32L1668.25,1618.88C1630.05,1647.95 1565.75,1690.63 1565.75,1690.63L1256.37,1468.58Z" style="fill:none;stroke:rgb(252,255,252);stroke-width:32.66px;"/>
            </g>
            <g transform="matrix(0.24,0,0,0.24,380.363,206.625)">
                <path d="M1256.37,1468.58C1269.19,1478.33 1565.75,1690.63 1565.75,1690.63C1565.75,1690.63 1564.96,1900.26 1565.73,2013.57L1248.67,1780.69L1246.38,1461.15L1256.37,1468.58Z" style="fill:none;stroke:rgb(252,255,252);stroke-width:33.41px;"/>
            </g>
        </g>
        <g transform="matrix(0.399681,0,0,0.399681,-126.555,-330.811)">
            <path d="M1256.37,1468.58C1250.08,1463.81 1246.28,1460.89 1246.28,1460.89L1565.98,1219.02L1888.17,1455.32L1773.44,1542.55C1773.44,1542.55 1782.46,1571.99 1777.09,1611.97C1773.7,1637.18 1767.58,1653.54 1747.64,1673.24C1742.72,1678.1 1737.68,1682.05 1732.65,1684.98C1704.49,1701.39 1676.44,1685.87 1668.37,1619.94L1668.25,1618.88C1630.05,1647.95 1565.75,1690.63 1565.75,1690.63C1565.75,1690.63 1507.75,1646.42 1467.32,1615.07C1479.66,1601.62 1531.03,1571.03 1501.69,1532.15C1453.13,1484.06 1407.63,1491.39 1345.18,1533.64C1336.07,1527.42 1325.46,1519.86 1314.64,1512L1256.37,1468.58Z" style="fill:none;stroke:rgb(252,255,252);stroke-width:32.66px;"/>
        </g>
        <g transform="matrix(0.399681,0,0,0.399681,-126.555,-330.811)">
            <path d="M1256.37,1468.58C1269.19,1478.33 1292.36,1495.81 1314.64,1512C1325.46,1519.86 1336.07,1527.42 1345.18,1533.64C1407.63,1491.39 1453.13,1484.06 1501.69,1532.15C1531.03,1571.03 1479.66,1601.62 1467.32,1615.07C1507.75,1646.42 1565.75,1690.63 1565.75,1690.63C1565.75,1690.63 1563.56,1792.49 1563.51,1793.99C1518.98,1764.07 1493.23,1751.8 1470.5,1778.5C1446.89,1806.24 1450.36,1838.81 1470.55,1868.07C1482.94,1886.03 1509.14,1903.97 1559.24,1925.63C1561.59,2009.88 1560.98,1942.28 1561.75,2055.59L1244.68,1822.71L1246.38,1461.15L1256.37,1468.58Z" style="fill:none;stroke:rgb(252,255,252);stroke-width:33.41px;"/>
        </g>
    </g>
</svg>
