<?xml version="1.0" encoding="UTF-8" standalone="no"?>
<!DOCTYPE svg PUBLIC "-//W3C//DTD SVG 1.1//EN" "http://www.w3.org/Graphics/SVG/1.1/DTD/svg11.dtd">
<svg width="100%" height="100%" viewBox="0 0 4961 827" version="1.1" xmlns="http://www.w3.org/2000/svg" xmlns:xlink="http://www.w3.org/1999/xlink" xml:space="preserve" xmlns:serif="http://www.serif.com/" style="fill-rule:evenodd;clip-rule:evenodd;stroke-linejoin:round;stroke-miterlimit:2;">
    <g transform="matrix(15.8867,0,0,15.8867,-9399.4,-22422.5)">
        <path d="M612.226,1430.67C615.326,1430.67 617.693,1431.38 619.326,1432.79C620.96,1434.21 621.776,1436.3 621.776,1439.07L621.776,1445.17C621.776,1448 620.985,1450.14 619.401,1451.59C617.818,1453.04 615.476,1453.74 612.376,1453.67L597.076,1453.42L597.076,1447.97L614.526,1447.97C615.06,1447.97 615.326,1447.7 615.326,1447.17L615.326,1437.17C615.326,1436.63 615.06,1436.37 614.526,1436.37L605.626,1436.37C602.526,1436.37 600.185,1435.68 598.601,1434.32C597.018,1432.95 596.226,1430.85 596.226,1428.02L596.226,1422.12C596.226,1419.35 597.043,1417.21 598.676,1415.69C600.31,1414.18 602.676,1413.45 605.776,1413.52L620.326,1413.77L620.326,1419.22L603.476,1419.22C602.943,1419.22 602.676,1419.5 602.676,1420.07L602.676,1429.87C602.676,1430.4 602.943,1430.67 603.476,1430.67L612.226,1430.67Z" style="fill:white;fill-rule:nonzero;"/>
        <path d="M637.476,1453.87C634.943,1453.87 633.101,1453.38 631.951,1452.39C630.801,1451.41 630.226,1449.65 630.226,1447.12L630.226,1422.82L636.276,1422.82L636.276,1448.27C636.276,1448.74 636.492,1448.97 636.923,1448.97L646.326,1448.97L646.326,1422.82L652.426,1422.82L652.426,1453.42L647.076,1453.42L646.526,1450.07C646.26,1451.34 645.676,1452.29 644.776,1452.92C643.876,1453.55 642.626,1453.87 641.026,1453.87L637.476,1453.87Z" style="fill:white;fill-rule:nonzero;"/>
        <path d="M662.726,1465.27L662.726,1422.82L668.076,1422.82L668.626,1426.32C668.893,1425.02 669.468,1424.04 670.351,1423.37C671.235,1422.7 672.493,1422.37 674.126,1422.37L677.626,1422.37C680.16,1422.37 682.01,1422.87 683.176,1423.87C684.343,1424.86 684.926,1426.63 684.926,1429.16L684.926,1446.38C684.926,1449.08 684.318,1450.94 683.101,1451.97C681.885,1453 679.843,1453.52 676.976,1453.52L668.776,1453.52L668.776,1465.27L662.726,1465.27ZM668.776,1427.97L668.776,1448.57L678.226,1448.57C678.66,1448.57 678.876,1448.35 678.876,1447.92L678.876,1427.97C678.876,1427.5 678.66,1427.27 678.226,1427.27L669.476,1427.27C669.01,1427.27 668.776,1427.5 668.776,1427.97Z" style="fill:white;fill-rule:nonzero;"/>
        <path d="M702.426,1453.77C699.393,1453.77 697.201,1453.18 695.851,1452.02C694.501,1450.85 693.826,1448.88 693.826,1446.12L693.826,1429.67C693.826,1426.9 694.41,1424.99 695.576,1423.94C696.743,1422.89 698.743,1422.37 701.576,1422.37L707.726,1422.37C710.593,1422.37 712.635,1422.89 713.851,1423.94C715.068,1424.99 715.676,1426.9 715.676,1429.67L715.676,1441.62L699.926,1441.62L699.926,1448.02C699.926,1448.45 700.143,1448.67 700.576,1448.67L714.876,1448.67L714.876,1453.77L702.426,1453.77ZM700.576,1427.27C700.143,1427.27 699.926,1427.5 699.926,1427.97L699.926,1437.22L709.626,1437.22L709.626,1427.97C709.626,1427.5 709.41,1427.27 708.976,1427.27L700.576,1427.27Z" style="fill:white;fill-rule:nonzero;"/>
        <path d="M739.126,1422.37L739.126,1427.27L731.576,1427.27C731.11,1427.27 730.876,1427.5 730.876,1427.97L730.876,1453.42L724.876,1453.42L724.876,1422.82L730.226,1422.82L730.676,1425.92C731.343,1423.55 733.193,1422.37 736.226,1422.37L739.126,1422.37Z" style="fill:white;fill-rule:nonzero;"/>
        <path d="M758.626,1453.52L752.126,1453.52L742.976,1413.77L749.176,1413.77L756.926,1447.97L759.426,1447.97C759.826,1447.97 760.043,1447.74 760.076,1447.27L768.376,1413.77L774.276,1413.77L765.726,1447.03C765.293,1448.79 764.843,1450.15 764.376,1451.1C763.91,1452.05 763.243,1452.69 762.376,1453.02C761.51,1453.35 760.26,1453.52 758.626,1453.52Z" style="fill:white;fill-rule:nonzero;"/>
        <path d="M782.152,1420.13L782.152,1414.54L788.252,1415.92L788.252,1421.52L782.152,1420.13ZM782.026,1453.42L782.026,1422.82L788.126,1422.82L788.126,1453.42L782.026,1453.42Z" style="fill:white;fill-rule:nonzero;"/>
        <g transform="matrix(1,0,0,1,44.5742,0)">
            <path d="M782.152,1420.13L782.152,1414.54L788.252,1415.92L788.252,1421.52L782.152,1420.13Z" style="fill:white;fill-rule:nonzero;"/>
        </g>
        <path d="M797.876,1453.57L797.876,1448.67L811.376,1448.67C811.843,1448.67 812.076,1448.45 812.076,1448.02L812.076,1440.97C812.076,1440.5 811.843,1440.27 811.376,1440.27L805.326,1440.27C802.46,1440.27 800.418,1439.75 799.201,1438.7C797.985,1437.65 797.376,1435.8 797.376,1433.14L797.376,1429.85C797.376,1427.09 798.018,1425.15 799.301,1424.04C800.585,1422.92 802.643,1422.37 805.476,1422.37L816.476,1422.37L816.476,1427.47L804.176,1427.47C803.743,1427.47 803.526,1427.7 803.526,1428.16L803.526,1434.82C803.526,1435.29 803.743,1435.52 804.176,1435.52L810.176,1435.52C813.043,1435.52 815.076,1436.03 816.276,1437.04C817.476,1438.06 818.076,1439.92 818.076,1442.62L818.076,1446.82C818.076,1449.35 817.5,1451.11 816.347,1452.09C815.194,1453.08 813.348,1453.57 810.808,1453.57L797.876,1453.57Z" style="fill:white;fill-rule:nonzero;"/>
        <rect x="826.726" y="1422.82" width="6.1" height="30.6" style="fill:white;fill-rule:nonzero;"/>
        <path d="M842.876,1429.97C842.876,1427.2 843.543,1425.24 844.876,1424.09C846.21,1422.94 848.393,1422.37 851.426,1422.37L856.876,1422.37C859.943,1422.37 862.143,1422.94 863.476,1424.09C864.81,1425.24 865.476,1427.2 865.476,1429.97L865.476,1446.27C865.476,1449.04 864.81,1450.99 863.476,1452.14C862.143,1453.29 859.943,1453.87 856.876,1453.87L851.426,1453.87C848.393,1453.87 846.21,1453.29 844.876,1452.14C843.543,1450.99 842.876,1449.04 842.876,1446.27L842.876,1429.97ZM849.676,1427.42C849.21,1427.42 848.976,1427.65 848.976,1428.12L848.976,1448.12C848.976,1448.59 849.21,1448.82 849.676,1448.82L858.726,1448.82C859.16,1448.82 859.376,1448.59 859.376,1448.12L859.376,1428.12C859.376,1427.65 859.16,1427.42 858.726,1427.42L849.676,1427.42Z" style="fill:white;fill-rule:nonzero;"/>
        <path d="M889.926,1422.37C892.426,1422.37 894.26,1422.87 895.426,1423.87C896.593,1424.87 897.176,1426.63 897.176,1429.17L897.176,1453.42L891.126,1453.42L891.126,1427.97C891.126,1427.5 890.91,1427.27 890.476,1427.27L881.726,1427.27C881.26,1427.27 881.026,1427.5 881.026,1427.97L881.026,1453.42L875.026,1453.42L875.026,1422.82L880.376,1422.82L880.826,1425.92C881.493,1423.55 883.343,1422.37 886.376,1422.37L889.926,1422.37Z" style="fill:white;fill-rule:nonzero;"/>
    </g>
</svg>
